# xmcd
#
# Track frame offsets: 
#        150
#        11930
#        22585
#        32732
#        44975
#        56265
#        68532
#        80435
#        91547
#        103437
#
# Disc length: 1539 seconds
#
# Revision: 9
# Processed by: cddbd v1.5.2PL0 Copyright (c) Steve Scherf et al.
# Submitted via: ExactAudioCopy v0.95b2
#
DISCID=7506010a
DTITLE=Various Artist - Billboard Top Hits - 1961
DYEAR=1961
DGENRE=Pop
TTITLE0=Bobby Lewis - Tossin' And Turnin'
TTITLE1=Del Shannon - Runaway
TTITLE2=Marcels - Blue Moon
TTITLE3=Dion - Runaround Sue
TTITLE4=Gary U.S. Bonds - Quarter To Three
TTITLE5=Shirelles - Will You Love Me Tomorrow
TTITLE6=Bobby Vee - Take Good Care Of My Baby
TTITLE7=Marvelettes - Please Mr. Postman
TTITLE8=Ernie K-Doe - Mother-In-Law
TTITLE9=Tokens - The Lion Sleeps Tonight
EXTD=
EXTT0=
EXTT1=
EXTT2=
EXTT3=
EXTT4=
EXTT5=
EXTT6=
EXTT7=
EXTT8=
EXTT9=
PLAYORDER=
